<svg id="visual" viewBox="0 0 900 600" width="900" height="600" xmlns="http://www.w3.org/2000/svg" xmlns:xlink="http://www.w3.org/1999/xlink" version="1.1"><rect x="0" y="0" width="900" height="600" fill="#002233"></rect><path d="M0 384L21.5 394.7C43 405.3 86 426.7 128.8 436.5C171.7 446.3 214.3 444.7 257.2 439.7C300 434.7 343 426.3 385.8 430.8C428.7 435.3 471.3 452.7 514.2 461.2C557 469.7 600 469.3 642.8 462.8C685.7 456.3 728.3 443.7 771.2 445.8C814 448 857 465 878.5 473.5L900 482L900 601L878.5 601C857 601 814 601 771.2 601C728.3 601 685.7 601 642.8 601C600 601 557 601 514.2 601C471.3 601 428.7 601 385.8 601C343 601 300 601 257.2 601C214.3 601 171.7 601 128.8 601C86 601 43 601 21.5 601L0 601Z" fill="#0066FF" stroke-linecap="round" stroke-linejoin="miter"></path></svg>